<mxfile host="65bd71144e">
    <diagram id="pQlmIpJ8IYanK10ipWJB" name="Classes">
        <mxGraphModel dx="1222" dy="1500" grid="1" gridSize="10" guides="1" tooltips="1" connect="1" arrows="1" fold="1" page="1" pageScale="1" pageWidth="1169" pageHeight="827" math="0" shadow="0">
            <root>
                <mxCell id="0"/>
                <mxCell id="1" parent="0"/>
                <mxCell id="4" value="SpanContext" style="swimlane;fontStyle=0;childLayout=stackLayout;horizontal=1;startSize=30;horizontalStack=0;resizeParent=1;resizeParentMax=0;resizeLast=0;collapsible=1;marginBottom=0;fontFamily=Lucida Console;" parent="1" vertex="1">
                    <mxGeometry x="60" y="294" width="240" height="240" as="geometry"/>
                </mxCell>
                <mxCell id="5" value="(Per callsite)" style="text;strokeColor=none;fillColor=none;align=left;verticalAlign=middle;spacingLeft=4;spacingRight=4;overflow=hidden;points=[[0,0.5],[1,0.5]];portConstraint=eastwest;rotatable=0;fontFamily=Lucida Console;" parent="4" vertex="1">
                    <mxGeometry y="30" width="240" height="30" as="geometry"/>
                </mxCell>
                <mxCell id="6" value="+ Id: u64" style="text;strokeColor=none;fillColor=none;align=left;verticalAlign=middle;spacingLeft=4;spacingRight=4;overflow=hidden;points=[[0,0.5],[1,0.5]];portConstraint=eastwest;rotatable=0;fontFamily=Lucida Console;" parent="4" vertex="1">
                    <mxGeometry y="60" width="240" height="30" as="geometry"/>
                </mxCell>
                <mxCell id="7" value="- Instances: Deque&lt;SpanInstance&gt;" style="text;strokeColor=none;fillColor=none;align=left;verticalAlign=middle;spacingLeft=4;spacingRight=4;overflow=hidden;points=[[0,0.5],[1,0.5]];portConstraint=eastwest;rotatable=0;fontFamily=Lucida Console;" parent="4" vertex="1">
                    <mxGeometry y="90" width="240" height="30" as="geometry"/>
                </mxCell>
                <mxCell id="44" value="- InstanceIndexBase: u64" style="text;strokeColor=none;fillColor=none;align=left;verticalAlign=middle;spacingLeft=4;spacingRight=4;overflow=hidden;points=[[0,0.5],[1,0.5]];portConstraint=eastwest;rotatable=0;fontFamily=Lucida Console;" parent="4" vertex="1">
                    <mxGeometry y="120" width="240" height="30" as="geometry"/>
                </mxCell>
                <mxCell id="50" value="+ AvailFields[]" style="text;strokeColor=none;fillColor=none;align=left;verticalAlign=middle;spacingLeft=4;spacingRight=4;overflow=hidden;points=[[0,0.5],[1,0.5]];portConstraint=eastwest;rotatable=0;fontFamily=Lucida Console;" parent="4" vertex="1">
                    <mxGeometry y="150" width="240" height="30" as="geometry"/>
                </mxCell>
                <mxCell id="53" value="- Guards: Deque&lt;SpanEnterGuard&gt;" style="text;strokeColor=none;fillColor=none;align=left;verticalAlign=middle;spacingLeft=4;spacingRight=4;overflow=hidden;points=[[0,0.5],[1,0.5]];portConstraint=eastwest;rotatable=0;fontFamily=Lucida Console;" parent="4" vertex="1">
                    <mxGeometry y="180" width="240" height="30" as="geometry"/>
                </mxCell>
                <mxCell id="U8rJYRz55noAvuklc1bf-66" value="- GuardIndexBase: u64" style="text;strokeColor=none;fillColor=none;align=left;verticalAlign=middle;spacingLeft=4;spacingRight=4;overflow=hidden;points=[[0,0.5],[1,0.5]];portConstraint=eastwest;rotatable=0;fontFamily=Lucida Console;" parent="4" vertex="1">
                    <mxGeometry y="210" width="240" height="30" as="geometry"/>
                </mxCell>
                <mxCell id="10" value="SpanInstance" style="swimlane;fontStyle=0;childLayout=stackLayout;horizontal=1;startSize=30;horizontalStack=0;resizeParent=1;resizeParentMax=0;resizeLast=0;collapsible=1;marginBottom=0;fontFamily=Lucida Console;" parent="1" vertex="1">
                    <mxGeometry x="465" y="294" width="240" height="240" as="geometry"/>
                </mxCell>
                <mxCell id="11" value="(Per new_span)" style="text;strokeColor=none;fillColor=none;align=left;verticalAlign=middle;spacingLeft=4;spacingRight=4;overflow=hidden;points=[[0,0.5],[1,0.5]];portConstraint=eastwest;rotatable=0;fontFamily=Lucida Console;" parent="10" vertex="1">
                    <mxGeometry y="30" width="240" height="30" as="geometry"/>
                </mxCell>
                <mxCell id="12" value="+ OwningContextId: u64" style="text;strokeColor=none;fillColor=none;align=left;verticalAlign=middle;spacingLeft=4;spacingRight=4;overflow=hidden;points=[[0,0.5],[1,0.5]];portConstraint=eastwest;rotatable=0;fontFamily=Lucida Console;" parent="10" vertex="1">
                    <mxGeometry y="60" width="240" height="30" as="geometry"/>
                </mxCell>
                <mxCell id="13" value="+ InstanceIndex: u64&#10;  # Unique per context" style="text;strokeColor=none;fillColor=none;align=left;verticalAlign=middle;spacingLeft=4;spacingRight=4;overflow=hidden;points=[[0,0.5],[1,0.5]];portConstraint=eastwest;rotatable=0;fontFamily=Lucida Console;" parent="10" vertex="1">
                    <mxGeometry y="90" width="240" height="40" as="geometry"/>
                </mxCell>
                <mxCell id="48" value="+ ValueRecords[]" style="text;strokeColor=none;fillColor=none;align=left;verticalAlign=middle;spacingLeft=4;spacingRight=4;overflow=hidden;points=[[0,0.5],[1,0.5]];portConstraint=eastwest;rotatable=0;fontFamily=Lucida Console;" parent="10" vertex="1">
                    <mxGeometry y="130" width="240" height="30" as="geometry"/>
                </mxCell>
                <mxCell id="64" value="+ GuardBeginIndex: u64" style="text;strokeColor=none;fillColor=none;align=left;verticalAlign=middle;spacingLeft=4;spacingRight=4;overflow=hidden;points=[[0,0.5],[1,0.5]];portConstraint=eastwest;rotatable=0;fontFamily=Lucida Console;" parent="10" vertex="1">
                    <mxGeometry y="160" width="240" height="30" as="geometry"/>
                </mxCell>
                <mxCell id="65" value="+ GuardActiveIndex: u64 &#10;  # 0 = None" style="text;strokeColor=none;fillColor=none;align=left;verticalAlign=middle;spacingLeft=4;spacingRight=4;overflow=hidden;points=[[0,0.5],[1,0.5]];portConstraint=eastwest;rotatable=0;fontFamily=Lucida Console;" parent="10" vertex="1">
                    <mxGeometry y="190" width="240" height="50" as="geometry"/>
                </mxCell>
                <mxCell id="19" value="TraceSubscriber" style="swimlane;fontStyle=0;childLayout=stackLayout;horizontal=1;startSize=30;horizontalStack=0;resizeParent=1;resizeParentMax=0;resizeLast=0;collapsible=1;marginBottom=0;fontFamily=Lucida Console;" parent="1" vertex="1">
                    <mxGeometry x="240" y="80" width="240" height="150" as="geometry"/>
                </mxCell>
                <mxCell id="20" value="(Per callsite)" style="text;strokeColor=none;fillColor=none;align=left;verticalAlign=middle;spacingLeft=4;spacingRight=4;overflow=hidden;points=[[0,0.5],[1,0.5]];portConstraint=eastwest;rotatable=0;fontFamily=Lucida Console;" parent="19" vertex="1">
                    <mxGeometry y="30" width="240" height="30" as="geometry"/>
                </mxCell>
                <mxCell id="21" value="+ Id" style="text;strokeColor=none;fillColor=none;align=left;verticalAlign=middle;spacingLeft=4;spacingRight=4;overflow=hidden;points=[[0,0.5],[1,0.5]];portConstraint=eastwest;rotatable=0;fontFamily=Lucida Console;" parent="19" vertex="1">
                    <mxGeometry y="60" width="240" height="30" as="geometry"/>
                </mxCell>
                <mxCell id="22" value="+ SpanSlots: &#10;    Table&lt;ContextId: u64,&#10;          SpanContext&gt;        " style="text;strokeColor=none;fillColor=none;align=left;verticalAlign=middle;spacingLeft=4;spacingRight=4;overflow=hidden;points=[[0,0.5],[1,0.5]];portConstraint=eastwest;rotatable=0;fontFamily=Lucida Console;dashed=1;perimeterSpacing=0;" parent="19" vertex="1">
                    <mxGeometry y="90" width="240" height="60" as="geometry"/>
                </mxCell>
                <mxCell id="51" value="&amp;lt;&amp;lt;tied&amp;gt;&amp;gt;" style="edgeStyle=none;html=1;entryX=0;entryY=0.5;entryDx=0;entryDy=0;dashed=1;fontFamily=Lucida Console;startFill=0;endArrow=none;endFill=0;startArrow=open;exitX=1;exitY=0.5;exitDx=0;exitDy=0;" parent="1" source="50" target="48" edge="1">
                    <mxGeometry relative="1" as="geometry"/>
                </mxCell>
                <mxCell id="55" value="SpanEnterGuard" style="swimlane;fontStyle=0;childLayout=stackLayout;horizontal=1;startSize=30;horizontalStack=0;resizeParent=1;resizeParentMax=0;resizeLast=0;collapsible=1;marginBottom=0;fontFamily=Lucida Console;" parent="1" vertex="1">
                    <mxGeometry x="465" y="550" width="240" height="220" as="geometry"/>
                </mxCell>
                <mxCell id="56" value="(Per span.enter())" style="text;strokeColor=none;fillColor=none;align=left;verticalAlign=middle;spacingLeft=4;spacingRight=4;overflow=hidden;points=[[0,0.5],[1,0.5]];portConstraint=eastwest;rotatable=0;fontFamily=Lucida Console;" parent="55" vertex="1">
                    <mxGeometry y="30" width="240" height="30" as="geometry"/>
                </mxCell>
                <mxCell id="61" value="+ OwningInstanceIndex: u64" style="text;strokeColor=none;fillColor=none;align=left;verticalAlign=middle;spacingLeft=4;spacingRight=4;overflow=hidden;points=[[0,0.5],[1,0.5]];portConstraint=eastwest;rotatable=0;fontFamily=Lucida Console;" parent="55" vertex="1">
                    <mxGeometry y="60" width="240" height="30" as="geometry"/>
                </mxCell>
                <mxCell id="60" value="+ GuardIndex: u64 &#10;  # Unique per context" style="text;strokeColor=none;fillColor=none;align=left;verticalAlign=middle;spacingLeft=4;spacingRight=4;overflow=hidden;points=[[0,0.5],[1,0.5]];portConstraint=eastwest;rotatable=0;fontFamily=Lucida Console;" parent="55" vertex="1">
                    <mxGeometry y="90" width="240" height="50" as="geometry"/>
                </mxCell>
                <mxCell id="U8rJYRz55noAvuklc1bf-71" value="+ GuardIndex: u64 &#10;  # Unique per context" style="text;strokeColor=none;fillColor=none;align=left;verticalAlign=middle;spacingLeft=4;spacingRight=4;overflow=hidden;points=[[0,0.5],[1,0.5]];portConstraint=eastwest;rotatable=0;fontFamily=Lucida Console;" parent="55" vertex="1">
                    <mxGeometry y="140" width="240" height="50" as="geometry"/>
                </mxCell>
                <mxCell id="U8rJYRz55noAvuklc1bf-72" value="+ Timing: SysTime[2]" style="text;strokeColor=none;fillColor=none;align=left;verticalAlign=middle;spacingLeft=4;spacingRight=4;overflow=hidden;points=[[0,0.5],[1,0.5]];portConstraint=eastwest;rotatable=0;fontFamily=Lucida Console;" parent="55" vertex="1">
                    <mxGeometry y="190" width="240" height="30" as="geometry"/>
                </mxCell>
                <mxCell id="U8rJYRz55noAvuklc1bf-68" style="edgeStyle=none;html=1;exitX=1;exitY=0.5;exitDx=0;exitDy=0;entryX=0.005;entryY=0.059;entryDx=0;entryDy=0;entryPerimeter=0;fontFamily=Lucida Console;endArrow=classic;endFill=1;" parent="1" source="7" target="10" edge="1">
                    <mxGeometry relative="1" as="geometry">
                        <Array as="points">
                            <mxPoint x="390" y="399"/>
                            <mxPoint x="390" y="306"/>
                        </Array>
                    </mxGeometry>
                </mxCell>
                <mxCell id="U8rJYRz55noAvuklc1bf-69" style="edgeStyle=none;html=1;exitX=1;exitY=0.5;exitDx=0;exitDy=0;entryX=0.007;entryY=0.101;entryDx=0;entryDy=0;entryPerimeter=0;fontFamily=Lucida Console;endArrow=classic;endFill=1;" parent="1" source="53" target="55" edge="1">
                    <mxGeometry relative="1" as="geometry"/>
                </mxCell>
                <mxCell id="U8rJYRz55noAvuklc1bf-70" style="edgeStyle=none;html=1;entryX=0.376;entryY=0.007;entryDx=0;entryDy=0;entryPerimeter=0;fontFamily=Lucida Console;endArrow=classic;endFill=1;exitX=0;exitY=0.5;exitDx=0;exitDy=0;" parent="1" source="22" target="4" edge="1">
                    <mxGeometry relative="1" as="geometry">
                        <Array as="points">
                            <mxPoint x="150" y="200"/>
                        </Array>
                    </mxGeometry>
                </mxCell>
            </root>
        </mxGraphModel>
    </diagram>
    <diagram id="8whLHvzPgUOjQ3z2aK4g" name="View">
        <mxGraphModel dx="1222" dy="1500" grid="1" gridSize="10" guides="1" tooltips="1" connect="1" arrows="1" fold="1" page="1" pageScale="1" pageWidth="1169" pageHeight="827" math="0" shadow="0">
            <root>
                <mxCell id="jIJrQ6zMe0PSYJjzpbTq-0"/>
                <mxCell id="jIJrQ6zMe0PSYJjzpbTq-1" parent="jIJrQ6zMe0PSYJjzpbTq-0"/>
                <mxCell id="lctqYJYSWqH1PHRyYjuy-1" value="20yy-mm-dd HH:MM:SS.SSS" style="endArrow=none;dashed=1;html=1;dashPattern=1 3;strokeWidth=2;fontFamily=Lucida Console;" parent="jIJrQ6zMe0PSYJjzpbTq-1" edge="1">
                    <mxGeometry width="50" height="50" relative="1" as="geometry">
                        <mxPoint x="120" y="160" as="sourcePoint"/>
                        <mxPoint x="500" y="160" as="targetPoint"/>
                    </mxGeometry>
                </mxCell>
                <mxCell id="lctqYJYSWqH1PHRyYjuy-2" value="On mouse up:&lt;br&gt;Shows time distance&lt;br&gt;from last event" style="shape=parallelogram;perimeter=parallelogramPerimeter;whiteSpace=wrap;html=1;fixedSize=1;fontFamily=Lucida Console;strokeColor=default;" parent="jIJrQ6zMe0PSYJjzpbTq-1" vertex="1">
                    <mxGeometry x="420" y="100" width="190" height="50" as="geometry"/>
                </mxCell>
                <mxCell id="lctqYJYSWqH1PHRyYjuy-3" value="&amp;lt;module&amp;gt; info: &amp;lt;log/event message here&amp;gt;" style="shape=callout;whiteSpace=wrap;html=1;perimeter=calloutPerimeter;fontFamily=Lucida Console;strokeColor=default;base=10;size=10;position=0.5;align=left;" parent="jIJrQ6zMe0PSYJjzpbTq-1" vertex="1">
                    <mxGeometry x="220" y="180" width="380" height="30" as="geometry"/>
                </mxCell>
                <mxCell id="lctqYJYSWqH1PHRyYjuy-4" value="HH:MM:SS.SSS" style="text;html=1;strokeColor=none;fillColor=none;align=left;verticalAlign=middle;whiteSpace=wrap;rounded=0;fontFamily=Lucida Console;" parent="jIJrQ6zMe0PSYJjzpbTq-1" vertex="1">
                    <mxGeometry x="120" y="180" width="90" height="20" as="geometry"/>
                </mxCell>
                <mxCell id="lctqYJYSWqH1PHRyYjuy-5" value="20yy-mm-dd HH:MM:SS.SSS" style="endArrow=none;dashed=1;html=1;dashPattern=1 3;strokeWidth=2;fontFamily=Lucida Console;" parent="jIJrQ6zMe0PSYJjzpbTq-1" edge="1">
                    <mxGeometry width="50" height="50" relative="1" as="geometry">
                        <mxPoint x="120" y="280" as="sourcePoint"/>
                        <mxPoint x="500" y="280" as="targetPoint"/>
                    </mxGeometry>
                </mxCell>
                <mxCell id="lctqYJYSWqH1PHRyYjuy-6" value="&amp;lt;module&amp;gt;&amp;nbsp;info: &amp;lt;log/event message here&amp;gt;" style="shape=callout;whiteSpace=wrap;html=1;perimeter=calloutPerimeter;fontFamily=Lucida Console;strokeColor=default;base=10;size=10;position=0.5;align=left;" parent="jIJrQ6zMe0PSYJjzpbTq-1" vertex="1">
                    <mxGeometry x="220" y="220" width="380" height="30" as="geometry"/>
                </mxCell>
                <mxCell id="lctqYJYSWqH1PHRyYjuy-7" value="" style="triangle;whiteSpace=wrap;html=1;fontFamily=Lucida Console;strokeColor=#A50040;fillColor=#d80073;fontColor=#ffffff;" parent="jIJrQ6zMe0PSYJjzpbTq-1" vertex="1">
                    <mxGeometry x="585" y="225" width="10" height="10" as="geometry"/>
                </mxCell>
                <mxCell id="lctqYJYSWqH1PHRyYjuy-8" value="HH:MM:SS.SSS" style="text;html=1;strokeColor=none;fillColor=none;align=left;verticalAlign=middle;whiteSpace=wrap;rounded=0;fontFamily=Lucida Console;" parent="jIJrQ6zMe0PSYJjzpbTq-1" vertex="1">
                    <mxGeometry x="120" y="220" width="100" height="20" as="geometry"/>
                </mxCell>
                <mxCell id="lctqYJYSWqH1PHRyYjuy-9" value="(Focus span; if event is not global)" style="text;html=1;strokeColor=none;fillColor=none;align=left;verticalAlign=middle;whiteSpace=wrap;rounded=0;fontFamily=Lucida Console;" parent="jIJrQ6zMe0PSYJjzpbTq-1" vertex="1">
                    <mxGeometry x="510" y="240" width="290" height="20" as="geometry"/>
                </mxCell>
                <mxCell id="lctqYJYSWqH1PHRyYjuy-11" value="# When day changes ..." style="text;html=1;strokeColor=none;fillColor=none;align=left;verticalAlign=middle;whiteSpace=wrap;rounded=0;fontFamily=Lucida Console;" parent="jIJrQ6zMe0PSYJjzpbTq-1" vertex="1">
                    <mxGeometry x="510" y="270" width="290" height="20" as="geometry"/>
                </mxCell>
                <mxCell id="lctqYJYSWqH1PHRyYjuy-12" value=":: EVENT VIEW ::" style="text;html=1;strokeColor=none;fillColor=none;align=left;verticalAlign=middle;whiteSpace=wrap;rounded=0;fontFamily=Lucida Console;" parent="jIJrQ6zMe0PSYJjzpbTq-1" vertex="1">
                    <mxGeometry x="120" y="110" width="160" height="20" as="geometry"/>
                </mxCell>
                <mxCell id="lctqYJYSWqH1PHRyYjuy-14" value="&amp;lt;module&amp;gt;&amp;nbsp;info: &amp;lt;log/event message here&amp;gt;" style="shape=callout;whiteSpace=wrap;html=1;perimeter=calloutPerimeter;fontFamily=Lucida Console;strokeColor=default;base=10;size=10;position=0.5;align=left;" parent="jIJrQ6zMe0PSYJjzpbTq-1" vertex="1">
                    <mxGeometry x="220" y="300" width="380" height="30" as="geometry"/>
                </mxCell>
                <mxCell id="lctqYJYSWqH1PHRyYjuy-15" value="HH:MM:SS.SSS" style="text;html=1;strokeColor=none;fillColor=none;align=left;verticalAlign=middle;whiteSpace=wrap;rounded=0;fontFamily=Lucida Console;" parent="jIJrQ6zMe0PSYJjzpbTq-1" vertex="1">
                    <mxGeometry x="120" y="300" width="100" height="20" as="geometry"/>
                </mxCell>
                <mxCell id="lctqYJYSWqH1PHRyYjuy-16" value=":: Span View ::" style="text;html=1;strokeColor=none;fillColor=none;align=left;verticalAlign=middle;whiteSpace=wrap;rounded=0;fontFamily=Lucida Console;" parent="jIJrQ6zMe0PSYJjzpbTq-1" vertex="1">
                    <mxGeometry x="120" y="404" width="160" height="20" as="geometry"/>
                </mxCell>
                <mxCell id="yIPLFvmAb2gzOuEUs1av-0" value="&lt;font face=&quot;Lucida Console&quot;&gt;Timeline (Real Time)&lt;/font&gt;" style="endArrow=classic;html=1;dashed=1;endFill=1;" parent="jIJrQ6zMe0PSYJjzpbTq-1" edge="1">
                    <mxGeometry width="50" height="50" relative="1" as="geometry">
                        <mxPoint x="120" y="440" as="sourcePoint"/>
                        <mxPoint x="680" y="440" as="targetPoint"/>
                    </mxGeometry>
                </mxCell>
                <mxCell id="yIPLFvmAb2gzOuEUs1av-1" value="&lt;font face=&quot;Lucida Console&quot;&gt;Root Span Instance Enter Guard&lt;/font&gt;" style="endArrow=none;html=1;" parent="jIJrQ6zMe0PSYJjzpbTq-1" edge="1">
                    <mxGeometry width="50" height="50" relative="1" as="geometry">
                        <mxPoint x="120" y="520" as="sourcePoint"/>
                        <mxPoint x="530" y="520" as="targetPoint"/>
                    </mxGeometry>
                </mxCell>
                <mxCell id="yIPLFvmAb2gzOuEUs1av-3" value="&lt;font face=&quot;Lucida Console&quot;&gt;SubSpan&lt;/font&gt;" style="endArrow=none;html=1;" parent="jIJrQ6zMe0PSYJjzpbTq-1" edge="1">
                    <mxGeometry width="50" height="50" relative="1" as="geometry">
                        <mxPoint x="140" y="540" as="sourcePoint"/>
                        <mxPoint x="330" y="540" as="targetPoint"/>
                    </mxGeometry>
                </mxCell>
                <mxCell id="yIPLFvmAb2gzOuEUs1av-5" value="&lt;font face=&quot;Lucida Console&quot;&gt;Non-Enter, Alive&lt;/font&gt;" style="endArrow=none;html=1;dashed=1;" parent="jIJrQ6zMe0PSYJjzpbTq-1" edge="1">
                    <mxGeometry width="50" height="50" relative="1" as="geometry">
                        <mxPoint x="680" y="520" as="sourcePoint"/>
                        <mxPoint x="530" y="520" as="targetPoint"/>
                    </mxGeometry>
                </mxCell>
                <mxCell id="yIPLFvmAb2gzOuEUs1av-6" value="&lt;font face=&quot;Lucida Console&quot;&gt;FollowSpan&lt;/font&gt;" style="endArrow=none;html=1;" parent="jIJrQ6zMe0PSYJjzpbTq-1" edge="1">
                    <mxGeometry width="50" height="50" relative="1" as="geometry">
                        <mxPoint x="350" y="650" as="sourcePoint"/>
                        <mxPoint x="650" y="650" as="targetPoint"/>
                    </mxGeometry>
                </mxCell>
                <mxCell id="yIPLFvmAb2gzOuEUs1av-7" value="&lt;font face=&quot;Lucida Console&quot;&gt;SubSubSpan&lt;/font&gt;" style="endArrow=none;html=1;" parent="jIJrQ6zMe0PSYJjzpbTq-1" edge="1">
                    <mxGeometry width="50" height="50" relative="1" as="geometry">
                        <mxPoint x="150" y="560" as="sourcePoint"/>
                        <mxPoint x="240" y="560" as="targetPoint"/>
                    </mxGeometry>
                </mxCell>
                <mxCell id="yIPLFvmAb2gzOuEUs1av-8" value="Mouse Up:&lt;br&gt;Show Records" style="shape=callout;whiteSpace=wrap;html=1;perimeter=calloutPerimeter;fontFamily=Lucida Console;size=10;position=0.5;direction=west;" parent="jIJrQ6zMe0PSYJjzpbTq-1" vertex="1">
                    <mxGeometry x="100" y="580" width="120" height="80" as="geometry"/>
                </mxCell>
                <mxCell id="yIPLFvmAb2gzOuEUs1av-9" value="&lt;font face=&quot;Lucida Console&quot;&gt;SubSpan 1&lt;/font&gt;" style="endArrow=none;html=1;" parent="jIJrQ6zMe0PSYJjzpbTq-1" edge="1">
                    <mxGeometry width="50" height="50" relative="1" as="geometry">
                        <mxPoint x="370" y="670" as="sourcePoint"/>
                        <mxPoint x="495" y="670" as="targetPoint"/>
                    </mxGeometry>
                </mxCell>
                <mxCell id="yIPLFvmAb2gzOuEUs1av-10" value="&lt;font face=&quot;Lucida Console&quot;&gt;Non-Enter, Dead&lt;/font&gt;" style="endArrow=none;html=1;dashed=1;dashPattern=1 1;" parent="jIJrQ6zMe0PSYJjzpbTq-1" edge="1">
                    <mxGeometry width="50" height="50" relative="1" as="geometry">
                        <mxPoint x="680" y="560" as="sourcePoint"/>
                        <mxPoint x="240" y="560" as="targetPoint"/>
                    </mxGeometry>
                </mxCell>
                <mxCell id="yIPLFvmAb2gzOuEUs1av-11" value="One vertical line per call site.&lt;br&gt;If multiple instance for same instance coexist under same parent,&lt;br&gt;multiple subspan expands to lines" style="text;html=1;strokeColor=none;fillColor=none;align=left;verticalAlign=middle;whiteSpace=wrap;rounded=0;fontFamily=Lucida Console;" parent="jIJrQ6zMe0PSYJjzpbTq-1" vertex="1">
                    <mxGeometry x="690" y="530" width="270" height="60" as="geometry"/>
                </mxCell>
                <mxCell id="yIPLFvmAb2gzOuEUs1av-12" value="&lt;font face=&quot;Lucida Console&quot;&gt;SubSpan 2&lt;/font&gt;" style="endArrow=none;html=1;" parent="jIJrQ6zMe0PSYJjzpbTq-1" edge="1">
                    <mxGeometry width="50" height="50" relative="1" as="geometry">
                        <mxPoint x="380" y="689.76" as="sourcePoint"/>
                        <mxPoint x="560" y="690" as="targetPoint"/>
                    </mxGeometry>
                </mxCell>
                <mxCell id="yIPLFvmAb2gzOuEUs1av-13" value="&lt;font face=&quot;Lucida Console&quot;&gt;SubSpan 3&lt;/font&gt;" style="endArrow=none;html=1;" parent="jIJrQ6zMe0PSYJjzpbTq-1" edge="1">
                    <mxGeometry width="50" height="50" relative="1" as="geometry">
                        <mxPoint x="380" y="710" as="sourcePoint"/>
                        <mxPoint x="540" y="710" as="targetPoint"/>
                    </mxGeometry>
                </mxCell>
                <mxCell id="yIPLFvmAb2gzOuEUs1av-14" value="&lt;font face=&quot;Lucida Console&quot;&gt;SubSpan 4&lt;/font&gt;" style="endArrow=none;html=1;" parent="jIJrQ6zMe0PSYJjzpbTq-1" edge="1">
                    <mxGeometry width="50" height="50" relative="1" as="geometry">
                        <mxPoint x="370" y="730" as="sourcePoint"/>
                        <mxPoint x="530" y="730" as="targetPoint"/>
                    </mxGeometry>
                </mxCell>
                <mxCell id="yIPLFvmAb2gzOuEUs1av-15" value="" style="endArrow=none;dashed=1;html=1;dashPattern=1 3;strokeWidth=2;fontFamily=Lucida Console;" parent="jIJrQ6zMe0PSYJjzpbTq-1" edge="1">
                    <mxGeometry width="50" height="50" relative="1" as="geometry">
                        <mxPoint x="570" y="750" as="sourcePoint"/>
                        <mxPoint x="570" y="660" as="targetPoint"/>
                    </mxGeometry>
                </mxCell>
                <mxCell id="yIPLFvmAb2gzOuEUs1av-16" value="&lt;font face=&quot;Lucida Console&quot;&gt;Collapsed another root span&lt;/font&gt;" style="endArrow=none;html=1;" parent="jIJrQ6zMe0PSYJjzpbTq-1" edge="1">
                    <mxGeometry width="50" height="50" relative="1" as="geometry">
                        <mxPoint x="210" y="790" as="sourcePoint"/>
                        <mxPoint x="620" y="790" as="targetPoint"/>
                    </mxGeometry>
                </mxCell>
                <mxCell id="yIPLFvmAb2gzOuEUs1av-17" value="" style="endArrow=none;dashed=1;html=1;dashPattern=1 3;strokeWidth=2;fontFamily=Lucida Console;" parent="jIJrQ6zMe0PSYJjzpbTq-1" edge="1">
                    <mxGeometry width="50" height="50" relative="1" as="geometry">
                        <mxPoint x="330" y="540" as="sourcePoint"/>
                        <mxPoint x="350" y="650" as="targetPoint"/>
                    </mxGeometry>
                </mxCell>
                <mxCell id="yIPLFvmAb2gzOuEUs1av-18" value="Once followed, it elevates to become sibling of its parent." style="text;html=1;strokeColor=none;fillColor=none;align=left;verticalAlign=middle;whiteSpace=wrap;rounded=0;fontFamily=Lucida Console;" parent="jIJrQ6zMe0PSYJjzpbTq-1" vertex="1">
                    <mxGeometry x="660" y="630" width="270" height="50" as="geometry"/>
                </mxCell>
            </root>
        </mxGraphModel>
    </diagram>
    <diagram id="FvNFko6wkOlI_jniI2pj" name="Configs">
        <mxGraphModel dx="841" dy="1034" grid="1" gridSize="10" guides="1" tooltips="1" connect="1" arrows="1" fold="1" page="1" pageScale="1" pageWidth="827" pageHeight="1169" math="0" shadow="0">
            <root>
                <mxCell id="0"/>
                <mxCell id="1" parent="0"/>
                <mxCell id="lbMsu8-DKgExfi_Wtx3x-5" value="* registeration&lt;br&gt;* layout update&lt;br&gt;* field update" style="edgeStyle=none;sketch=1;hachureGap=4;jiggle=2;curveFitting=1;html=1;fontFamily=Architects Daughter;fontSource=https%3A%2F%2Ffonts.googleapis.com%2Fcss%3Ffamily%3DArchitects%2BDaughter;fontSize=16;curved=1;" parent="1" source="lbMsu8-DKgExfi_Wtx3x-1" target="lbMsu8-DKgExfi_Wtx3x-4" edge="1">
                    <mxGeometry x="0.2486" y="23" relative="1" as="geometry">
                        <Array as="points">
                            <mxPoint x="320" y="210"/>
                        </Array>
                        <mxPoint as="offset"/>
                    </mxGeometry>
                </mxCell>
                <mxCell id="lbMsu8-DKgExfi_Wtx3x-1" value="Application" style="text;html=1;align=center;verticalAlign=middle;resizable=0;points=[];autosize=1;strokeColor=none;fillColor=none;fontSize=20;fontFamily=Architects Daughter;sketch=1;hachureGap=4;jiggle=2;curveFitting=1;fontSource=https%3A%2F%2Ffonts.googleapis.com%2Fcss%3Ffamily%3DArchitects%2BDaughter;" parent="1" vertex="1">
                    <mxGeometry x="380" y="110" width="120" height="40" as="geometry"/>
                </mxCell>
                <mxCell id="lbMsu8-DKgExfi_Wtx3x-8" value="* contact&lt;br&gt;* Login" style="edgeStyle=none;sketch=1;hachureGap=4;jiggle=2;curveFitting=1;html=1;fontFamily=Architects Daughter;fontSource=https%3A%2F%2Ffonts.googleapis.com%2Fcss%3Ffamily%3DArchitects%2BDaughter;fontSize=16;curved=1;" parent="1" source="lbMsu8-DKgExfi_Wtx3x-7" target="lbMsu8-DKgExfi_Wtx3x-4" edge="1">
                    <mxGeometry x="-0.1532" y="16" relative="1" as="geometry">
                        <Array as="points">
                            <mxPoint x="680" y="350"/>
                        </Array>
                        <mxPoint as="offset"/>
                    </mxGeometry>
                </mxCell>
                <mxCell id="R1AXY-jvkQKEjW8_8i0l-14" value="* field update" style="edgeStyle=none;curved=1;sketch=1;hachureGap=4;jiggle=2;curveFitting=1;html=1;fontFamily=Architects Daughter;fontSource=https%3A%2F%2Ffonts.googleapis.com%2Fcss%3Ffamily%3DArchitects%2BDaughter;fontSize=16;" parent="1" source="lbMsu8-DKgExfi_Wtx3x-4" target="lbMsu8-DKgExfi_Wtx3x-1" edge="1">
                    <mxGeometry x="-0.0025" relative="1" as="geometry">
                        <Array as="points">
                            <mxPoint x="580" y="160"/>
                        </Array>
                        <mxPoint as="offset"/>
                    </mxGeometry>
                </mxCell>
                <mxCell id="NKJwu_FYcODLxG2hL-an-3" value="* list of peers&lt;br&gt;* layout update&lt;br&gt;* field update" style="edgeStyle=none;sketch=1;hachureGap=4;jiggle=2;curveFitting=1;html=1;fontFamily=Architects Daughter;fontSource=https%3A%2F%2Ffonts.googleapis.com%2Fcss%3Ffamily%3DArchitects%2BDaughter;fontSize=16;curved=1;" edge="1" parent="1" source="lbMsu8-DKgExfi_Wtx3x-4" target="lbMsu8-DKgExfi_Wtx3x-7">
                    <mxGeometry relative="1" as="geometry">
                        <Array as="points">
                            <mxPoint x="400" y="380"/>
                            <mxPoint x="510" y="490"/>
                        </Array>
                    </mxGeometry>
                </mxCell>
                <mxCell id="lbMsu8-DKgExfi_Wtx3x-4" value="Data Sink" style="text;html=1;align=center;verticalAlign=middle;resizable=0;points=[];autosize=1;strokeColor=none;fillColor=none;fontSize=20;fontFamily=Architects Daughter;sketch=1;hachureGap=4;jiggle=2;curveFitting=1;fontSource=https%3A%2F%2Ffonts.googleapis.com%2Fcss%3Ffamily%3DArchitects%2BDaughter;" parent="1" vertex="1">
                    <mxGeometry x="450" y="280" width="110" height="40" as="geometry"/>
                </mxCell>
                <mxCell id="lbMsu8-DKgExfi_Wtx3x-7" value="Frontend" style="text;html=1;align=center;verticalAlign=middle;resizable=0;points=[];autosize=1;strokeColor=none;fillColor=none;fontSize=20;fontFamily=Architects Daughter;sketch=1;hachureGap=4;jiggle=2;curveFitting=1;fontSource=https%3A%2F%2Ffonts.googleapis.com%2Fcss%3Ffamily%3DArchitects%2BDaughter;" parent="1" vertex="1">
                    <mxGeometry x="630" y="480" width="110" height="40" as="geometry"/>
                </mxCell>
                <mxCell id="NKJwu_FYcODLxG2hL-an-8" value="Registration" style="swimlane;fontStyle=0;childLayout=stackLayout;horizontal=1;startSize=30;horizontalStack=0;resizeParent=1;resizeParentMax=0;resizeLast=0;collapsible=1;marginBottom=0;whiteSpace=wrap;html=1;sketch=1;hachureGap=4;jiggle=2;curveFitting=1;fontFamily=Architects Daughter;fontSource=https%3A%2F%2Ffonts.googleapis.com%2Fcss%3Ffamily%3DArchitects%2BDaughter;fontSize=20;" vertex="1" parent="1">
                    <mxGeometry x="40" y="50" width="140" height="90" as="geometry"/>
                </mxCell>
                <mxCell id="NKJwu_FYcODLxG2hL-an-9" value="+ Auth Set" style="text;strokeColor=none;fillColor=none;align=left;verticalAlign=middle;spacingLeft=4;spacingRight=4;overflow=hidden;points=[[0,0.5],[1,0.5]];portConstraint=eastwest;rotatable=0;whiteSpace=wrap;html=1;fontSize=16;sketch=1;hachureGap=4;jiggle=2;curveFitting=1;fontFamily=Architects Daughter;fontSource=https%3A%2F%2Ffonts.googleapis.com%2Fcss%3Ffamily%3DArchitects%2BDaughter;" vertex="1" parent="NKJwu_FYcODLxG2hL-an-8">
                    <mxGeometry y="30" width="140" height="30" as="geometry"/>
                </mxCell>
                <mxCell id="NKJwu_FYcODLxG2hL-an-11" value="+ Introduction" style="text;strokeColor=none;fillColor=none;align=left;verticalAlign=middle;spacingLeft=4;spacingRight=4;overflow=hidden;points=[[0,0.5],[1,0.5]];portConstraint=eastwest;rotatable=0;whiteSpace=wrap;html=1;fontSize=16;sketch=1;hachureGap=4;jiggle=2;curveFitting=1;fontFamily=Architects Daughter;fontSource=https%3A%2F%2Ffonts.googleapis.com%2Fcss%3Ffamily%3DArchitects%2BDaughter;" vertex="1" parent="NKJwu_FYcODLxG2hL-an-8">
                    <mxGeometry y="60" width="140" height="30" as="geometry"/>
                </mxCell>
                <mxCell id="NKJwu_FYcODLxG2hL-an-10" value="* ID/PW&lt;br&gt;* R/W access" style="text;strokeColor=none;fillColor=none;align=left;verticalAlign=middle;spacingLeft=4;spacingRight=4;overflow=hidden;points=[[0,0.5],[1,0.5]];portConstraint=eastwest;rotatable=0;whiteSpace=wrap;html=1;fontSize=16;sketch=1;hachureGap=4;jiggle=2;curveFitting=1;fontFamily=Architects Daughter;fontSource=https%3A%2F%2Ffonts.googleapis.com%2Fcss%3Ffamily%3DArchitects%2BDaughter;" vertex="1" parent="1">
                    <mxGeometry x="230" y="40" width="140" height="60" as="geometry"/>
                </mxCell>
                <mxCell id="NKJwu_FYcODLxG2hL-an-22" style="edgeStyle=none;curved=1;sketch=1;hachureGap=4;jiggle=2;curveFitting=1;html=1;fontFamily=Architects Daughter;fontSource=https%3A%2F%2Ffonts.googleapis.com%2Fcss%3Ffamily%3DArchitects%2BDaughter;fontSize=16;" edge="1" parent="1" source="NKJwu_FYcODLxG2hL-an-9" target="NKJwu_FYcODLxG2hL-an-10">
                    <mxGeometry relative="1" as="geometry"/>
                </mxCell>
            </root>
        </mxGraphModel>
    </diagram>
</mxfile>